<mxfile host="app.diagrams.net" agent="Mozilla/5.0 (X11; Linux x86_64) AppleWebKit/537.36 (KHTML, like Gecko) Chrome/133.0.0.0 Safari/537.36" version="26.0.16">
  <diagram id="C5RBs43oDa-KdzZeNtuy" name="Page-1">
    <mxGraphModel dx="1600" dy="2019" grid="1" gridSize="10" guides="1" tooltips="1" connect="1" arrows="1" fold="1" page="1" pageScale="1" pageWidth="827" pageHeight="1169" math="0" shadow="0">
      <root>
        <mxCell id="WIyWlLk6GJQsqaUBKTNV-0" />
        <mxCell id="WIyWlLk6GJQsqaUBKTNV-1" parent="WIyWlLk6GJQsqaUBKTNV-0" />
        <mxCell id="MnHgNe1KUJ_qipHJh511-0" value="EventsLoader" style="swimlane;fontStyle=0;align=center;verticalAlign=top;childLayout=stackLayout;horizontal=1;startSize=26;horizontalStack=0;resizeParent=1;resizeLast=0;collapsible=1;marginBottom=0;rounded=0;shadow=0;strokeWidth=1;" parent="WIyWlLk6GJQsqaUBKTNV-1" vertex="1">
          <mxGeometry x="1067" y="130" width="160" height="260" as="geometry">
            <mxRectangle x="550" y="140" width="160" height="26" as="alternateBounds" />
          </mxGeometry>
        </mxCell>
        <mxCell id="MnHgNe1KUJ_qipHJh511-1" value="- events: Events" style="text;align=left;verticalAlign=top;spacingLeft=4;spacingRight=4;overflow=hidden;rotatable=0;points=[[0,0.5],[1,0.5]];portConstraint=eastwest;" parent="MnHgNe1KUJ_qipHJh511-0" vertex="1">
          <mxGeometry y="26" width="160" height="26" as="geometry" />
        </mxCell>
        <mxCell id="MnHgNe1KUJ_qipHJh511-3" value="- is_init: bool" style="text;align=left;verticalAlign=top;spacingLeft=4;spacingRight=4;overflow=hidden;rotatable=0;points=[[0,0.5],[1,0.5]];portConstraint=eastwest;rounded=0;shadow=0;html=0;" parent="MnHgNe1KUJ_qipHJh511-0" vertex="1">
          <mxGeometry y="52" width="160" height="26" as="geometry" />
        </mxCell>
        <mxCell id="MnHgNe1KUJ_qipHJh511-6" value="" style="line;html=1;strokeWidth=1;align=left;verticalAlign=middle;spacingTop=-1;spacingLeft=3;spacingRight=3;rotatable=0;labelPosition=right;points=[];portConstraint=eastwest;" parent="MnHgNe1KUJ_qipHJh511-0" vertex="1">
          <mxGeometry y="78" width="160" height="8" as="geometry" />
        </mxCell>
        <mxCell id="MnHgNe1KUJ_qipHJh511-207" value="init()" style="text;align=left;verticalAlign=top;spacingLeft=4;spacingRight=4;overflow=hidden;rotatable=0;points=[[0,0.5],[1,0.5]];portConstraint=eastwest;" parent="MnHgNe1KUJ_qipHJh511-0" vertex="1">
          <mxGeometry y="86" width="160" height="26" as="geometry" />
        </mxCell>
        <mxCell id="MnHgNe1KUJ_qipHJh511-201" value="register_event()" style="text;align=left;verticalAlign=top;spacingLeft=4;spacingRight=4;overflow=hidden;rotatable=0;points=[[0,0.5],[1,0.5]];portConstraint=eastwest;" parent="MnHgNe1KUJ_qipHJh511-0" vertex="1">
          <mxGeometry y="112" width="160" height="26" as="geometry" />
        </mxCell>
        <mxCell id="MnHgNe1KUJ_qipHJh511-204" value="register_cls()&#xa;" style="text;align=left;verticalAlign=top;spacingLeft=4;spacingRight=4;overflow=hidden;rotatable=0;points=[[0,0.5],[1,0.5]];portConstraint=eastwest;" parent="MnHgNe1KUJ_qipHJh511-0" vertex="1">
          <mxGeometry y="138" width="160" height="26" as="geometry" />
        </mxCell>
        <mxCell id="MnHgNe1KUJ_qipHJh511-203" value="register_object()" style="text;align=left;verticalAlign=top;spacingLeft=4;spacingRight=4;overflow=hidden;rotatable=0;points=[[0,0.5],[1,0.5]];portConstraint=eastwest;" parent="MnHgNe1KUJ_qipHJh511-0" vertex="1">
          <mxGeometry y="164" width="160" height="26" as="geometry" />
        </mxCell>
        <mxCell id="MnHgNe1KUJ_qipHJh511-202" value="set_cls()&#xa;" style="text;align=left;verticalAlign=top;spacingLeft=4;spacingRight=4;overflow=hidden;rotatable=0;points=[[0,0.5],[1,0.5]];portConstraint=eastwest;" parent="MnHgNe1KUJ_qipHJh511-0" vertex="1">
          <mxGeometry y="190" width="160" height="26" as="geometry" />
        </mxCell>
        <mxCell id="MnHgNe1KUJ_qipHJh511-190" style="edgeStyle=orthogonalEdgeStyle;rounded=0;orthogonalLoop=1;jettySize=auto;html=1;exitX=0.5;exitY=0;exitDx=0;exitDy=0;entryX=0.75;entryY=1;entryDx=0;entryDy=0;" parent="WIyWlLk6GJQsqaUBKTNV-1" source="MnHgNe1KUJ_qipHJh511-19" target="MnHgNe1KUJ_qipHJh511-106" edge="1">
          <mxGeometry relative="1" as="geometry" />
        </mxCell>
        <mxCell id="MnHgNe1KUJ_qipHJh511-19" value="Interface" style="swimlane;fontStyle=0;align=center;verticalAlign=top;childLayout=stackLayout;horizontal=1;startSize=26;horizontalStack=0;resizeParent=1;resizeLast=0;collapsible=1;marginBottom=0;rounded=0;shadow=0;strokeWidth=1;" parent="WIyWlLk6GJQsqaUBKTNV-1" vertex="1">
          <mxGeometry x="1470" y="1952" width="160" height="100" as="geometry">
            <mxRectangle x="550" y="140" width="160" height="26" as="alternateBounds" />
          </mxGeometry>
        </mxCell>
        <mxCell id="MnHgNe1KUJ_qipHJh511-187" value="- objects: dict - static" style="text;align=left;verticalAlign=top;spacingLeft=4;spacingRight=4;overflow=hidden;rotatable=0;points=[[0,0.5],[1,0.5]];portConstraint=eastwest;rounded=0;shadow=0;html=0;" parent="MnHgNe1KUJ_qipHJh511-19" vertex="1">
          <mxGeometry y="26" width="160" height="27" as="geometry" />
        </mxCell>
        <mxCell id="MnHgNe1KUJ_qipHJh511-23" value="" style="line;html=1;strokeWidth=1;align=left;verticalAlign=middle;spacingTop=-1;spacingLeft=3;spacingRight=3;rotatable=0;labelPosition=right;points=[];portConstraint=eastwest;" parent="MnHgNe1KUJ_qipHJh511-19" vertex="1">
          <mxGeometry y="53" width="160" height="9" as="geometry" />
        </mxCell>
        <mxCell id="MnHgNe1KUJ_qipHJh511-40" value="get() - classmethod" style="text;align=left;verticalAlign=top;spacingLeft=4;spacingRight=4;overflow=hidden;rotatable=0;points=[[0,0.5],[1,0.5]];portConstraint=eastwest;rounded=0;shadow=0;html=0;" parent="MnHgNe1KUJ_qipHJh511-19" vertex="1">
          <mxGeometry y="62" width="160" height="27" as="geometry" />
        </mxCell>
        <mxCell id="MnHgNe1KUJ_qipHJh511-44" value="Game" style="swimlane;fontStyle=0;align=center;verticalAlign=top;childLayout=stackLayout;horizontal=1;startSize=26;horizontalStack=0;resizeParent=1;resizeLast=0;collapsible=1;marginBottom=0;rounded=0;shadow=0;strokeWidth=1;" parent="WIyWlLk6GJQsqaUBKTNV-1" vertex="1">
          <mxGeometry x="1020" y="1833" width="160" height="91" as="geometry">
            <mxRectangle x="550" y="140" width="160" height="26" as="alternateBounds" />
          </mxGeometry>
        </mxCell>
        <mxCell id="MnHgNe1KUJ_qipHJh511-45" value="- fps: int" style="text;align=left;verticalAlign=top;spacingLeft=4;spacingRight=4;overflow=hidden;rotatable=0;points=[[0,0.5],[1,0.5]];portConstraint=eastwest;rounded=0;shadow=0;html=0;" parent="MnHgNe1KUJ_qipHJh511-44" vertex="1">
          <mxGeometry y="26" width="160" height="27" as="geometry" />
        </mxCell>
        <mxCell id="MnHgNe1KUJ_qipHJh511-48" value="" style="line;html=1;strokeWidth=1;align=left;verticalAlign=middle;spacingTop=-1;spacingLeft=3;spacingRight=3;rotatable=0;labelPosition=right;points=[];portConstraint=eastwest;" parent="MnHgNe1KUJ_qipHJh511-44" vertex="1">
          <mxGeometry y="53" width="160" height="9" as="geometry" />
        </mxCell>
        <mxCell id="MnHgNe1KUJ_qipHJh511-57" value="run()" style="text;align=left;verticalAlign=top;spacingLeft=4;spacingRight=4;overflow=hidden;rotatable=0;points=[[0,0.5],[1,0.5]];portConstraint=eastwest;rounded=0;shadow=0;html=0;" parent="MnHgNe1KUJ_qipHJh511-44" vertex="1">
          <mxGeometry y="62" width="160" height="27" as="geometry" />
        </mxCell>
        <mxCell id="MnHgNe1KUJ_qipHJh511-67" value="Group" style="swimlane;fontStyle=0;align=center;verticalAlign=top;childLayout=stackLayout;horizontal=1;startSize=26;horizontalStack=0;resizeParent=1;resizeLast=0;collapsible=1;marginBottom=0;rounded=0;shadow=0;strokeWidth=1;" parent="WIyWlLk6GJQsqaUBKTNV-1" vertex="1">
          <mxGeometry x="1558" y="1565" width="160" height="208" as="geometry">
            <mxRectangle x="550" y="140" width="160" height="26" as="alternateBounds" />
          </mxGeometry>
        </mxCell>
        <mxCell id="MnHgNe1KUJ_qipHJh511-70" value="" style="line;html=1;strokeWidth=1;align=left;verticalAlign=middle;spacingTop=-1;spacingLeft=3;spacingRight=3;rotatable=0;labelPosition=right;points=[];portConstraint=eastwest;" parent="MnHgNe1KUJ_qipHJh511-67" vertex="1">
          <mxGeometry y="26" width="160" height="8" as="geometry" />
        </mxCell>
        <mxCell id="MnHgNe1KUJ_qipHJh511-75" value="event()" style="text;align=left;verticalAlign=top;spacingLeft=4;spacingRight=4;overflow=hidden;rotatable=0;points=[[0,0.5],[1,0.5]];portConstraint=eastwest;rounded=0;shadow=0;html=0;" parent="MnHgNe1KUJ_qipHJh511-67" vertex="1">
          <mxGeometry y="34" width="160" height="26" as="geometry" />
        </mxCell>
        <mxCell id="MnHgNe1KUJ_qipHJh511-136" value="frame()&#xa;" style="text;align=left;verticalAlign=top;spacingLeft=4;spacingRight=4;overflow=hidden;rotatable=0;points=[[0,0.5],[1,0.5]];portConstraint=eastwest;" parent="MnHgNe1KUJ_qipHJh511-67" vertex="1">
          <mxGeometry y="60" width="160" height="26" as="geometry" />
        </mxCell>
        <mxCell id="MnHgNe1KUJ_qipHJh511-137" value="register_cls()&#xa;" style="text;align=left;verticalAlign=top;spacingLeft=4;spacingRight=4;overflow=hidden;rotatable=0;points=[[0,0.5],[1,0.5]];portConstraint=eastwest;" parent="MnHgNe1KUJ_qipHJh511-67" vertex="1">
          <mxGeometry y="86" width="160" height="26" as="geometry" />
        </mxCell>
        <mxCell id="MnHgNe1KUJ_qipHJh511-138" value="register_object()" style="text;align=left;verticalAlign=top;spacingLeft=4;spacingRight=4;overflow=hidden;rotatable=0;points=[[0,0.5],[1,0.5]];portConstraint=eastwest;" parent="MnHgNe1KUJ_qipHJh511-67" vertex="1">
          <mxGeometry y="112" width="160" height="26" as="geometry" />
        </mxCell>
        <mxCell id="MnHgNe1KUJ_qipHJh511-73" value="add_event()" style="text;align=left;verticalAlign=top;spacingLeft=4;spacingRight=4;overflow=hidden;rotatable=0;points=[[0,0.5],[1,0.5]];portConstraint=eastwest;rounded=0;shadow=0;html=0;" parent="MnHgNe1KUJ_qipHJh511-67" vertex="1">
          <mxGeometry y="138" width="160" height="26" as="geometry" />
        </mxCell>
        <mxCell id="MnHgNe1KUJ_qipHJh511-140" value="set_cls()&#xa;" style="text;align=left;verticalAlign=top;spacingLeft=4;spacingRight=4;overflow=hidden;rotatable=0;points=[[0,0.5],[1,0.5]];portConstraint=eastwest;" parent="MnHgNe1KUJ_qipHJh511-67" vertex="1">
          <mxGeometry y="164" width="160" height="26" as="geometry" />
        </mxCell>
        <mxCell id="MnHgNe1KUJ_qipHJh511-77" value="Events" style="swimlane;fontStyle=0;align=center;verticalAlign=top;childLayout=stackLayout;horizontal=1;startSize=26;horizontalStack=0;resizeParent=1;resizeLast=0;collapsible=1;marginBottom=0;rounded=0;shadow=0;strokeWidth=1;" parent="WIyWlLk6GJQsqaUBKTNV-1" vertex="1">
          <mxGeometry x="1052" y="-310" width="190" height="330" as="geometry">
            <mxRectangle x="550" y="140" width="160" height="26" as="alternateBounds" />
          </mxGeometry>
        </mxCell>
        <mxCell id="MnHgNe1KUJ_qipHJh511-78" value="- loading_events" style="text;align=left;verticalAlign=top;spacingLeft=4;spacingRight=4;overflow=hidden;rotatable=0;points=[[0,0.5],[1,0.5]];portConstraint=eastwest;rounded=0;shadow=0;html=0;" parent="MnHgNe1KUJ_qipHJh511-77" vertex="1">
          <mxGeometry y="26" width="190" height="26" as="geometry" />
        </mxCell>
        <mxCell id="MnHgNe1KUJ_qipHJh511-105" value="- classes: list" style="text;align=left;verticalAlign=top;spacingLeft=4;spacingRight=4;overflow=hidden;rotatable=0;points=[[0,0.5],[1,0.5]];portConstraint=eastwest;" parent="MnHgNe1KUJ_qipHJh511-77" vertex="1">
          <mxGeometry y="52" width="190" height="26" as="geometry" />
        </mxCell>
        <mxCell id="MnHgNe1KUJ_qipHJh511-79" value="- classes: list" style="text;align=left;verticalAlign=top;spacingLeft=4;spacingRight=4;overflow=hidden;rotatable=0;points=[[0,0.5],[1,0.5]];portConstraint=eastwest;" parent="MnHgNe1KUJ_qipHJh511-77" vertex="1">
          <mxGeometry y="78" width="190" height="26" as="geometry" />
        </mxCell>
        <mxCell id="MnHgNe1KUJ_qipHJh511-88" value="- objects: dict" style="text;align=left;verticalAlign=top;spacingLeft=4;spacingRight=4;overflow=hidden;rotatable=0;points=[[0,0.5],[1,0.5]];portConstraint=eastwest;" parent="MnHgNe1KUJ_qipHJh511-77" vertex="1">
          <mxGeometry y="104" width="190" height="26" as="geometry" />
        </mxCell>
        <mxCell id="MnHgNe1KUJ_qipHJh511-89" value="- events: dict" style="text;align=left;verticalAlign=top;spacingLeft=4;spacingRight=4;overflow=hidden;rotatable=0;points=[[0,0.5],[1,0.5]];portConstraint=eastwest;" parent="MnHgNe1KUJ_qipHJh511-77" vertex="1">
          <mxGeometry y="130" width="190" height="26" as="geometry" />
        </mxCell>
        <mxCell id="MnHgNe1KUJ_qipHJh511-80" value="" style="line;html=1;strokeWidth=1;align=left;verticalAlign=middle;spacingTop=-1;spacingLeft=3;spacingRight=3;rotatable=0;labelPosition=right;points=[];portConstraint=eastwest;" parent="MnHgNe1KUJ_qipHJh511-77" vertex="1">
          <mxGeometry y="156" width="190" height="8" as="geometry" />
        </mxCell>
        <mxCell id="MnHgNe1KUJ_qipHJh511-81" value="init()" style="text;align=left;verticalAlign=top;spacingLeft=4;spacingRight=4;overflow=hidden;rotatable=0;points=[[0,0.5],[1,0.5]];portConstraint=eastwest;rounded=0;shadow=0;html=0;" parent="MnHgNe1KUJ_qipHJh511-77" vertex="1">
          <mxGeometry y="164" width="190" height="26" as="geometry" />
        </mxCell>
        <mxCell id="MnHgNe1KUJ_qipHJh511-90" value="add_event()" style="text;align=left;verticalAlign=top;spacingLeft=4;spacingRight=4;overflow=hidden;rotatable=0;points=[[0,0.5],[1,0.5]];portConstraint=eastwest;rounded=0;shadow=0;html=0;" parent="MnHgNe1KUJ_qipHJh511-77" vertex="1">
          <mxGeometry y="190" width="190" height="26" as="geometry" />
        </mxCell>
        <mxCell id="MnHgNe1KUJ_qipHJh511-91" value="register_cls()" style="text;align=left;verticalAlign=top;spacingLeft=4;spacingRight=4;overflow=hidden;rotatable=0;points=[[0,0.5],[1,0.5]];portConstraint=eastwest;rounded=0;shadow=0;html=0;" parent="MnHgNe1KUJ_qipHJh511-77" vertex="1">
          <mxGeometry y="216" width="190" height="26" as="geometry" />
        </mxCell>
        <mxCell id="MnHgNe1KUJ_qipHJh511-93" value="add_cls()" style="text;align=left;verticalAlign=top;spacingLeft=4;spacingRight=4;overflow=hidden;rotatable=0;points=[[0,0.5],[1,0.5]];portConstraint=eastwest;rounded=0;shadow=0;html=0;" parent="MnHgNe1KUJ_qipHJh511-77" vertex="1">
          <mxGeometry y="242" width="190" height="26" as="geometry" />
        </mxCell>
        <mxCell id="MnHgNe1KUJ_qipHJh511-94" value="add_object()" style="text;align=left;verticalAlign=top;spacingLeft=4;spacingRight=4;overflow=hidden;rotatable=0;points=[[0,0.5],[1,0.5]];portConstraint=eastwest;rounded=0;shadow=0;html=0;" parent="MnHgNe1KUJ_qipHJh511-77" vertex="1">
          <mxGeometry y="268" width="190" height="26" as="geometry" />
        </mxCell>
        <mxCell id="MnHgNe1KUJ_qipHJh511-95" value="run()" style="text;align=left;verticalAlign=top;spacingLeft=4;spacingRight=4;overflow=hidden;rotatable=0;points=[[0,0.5],[1,0.5]];portConstraint=eastwest;rounded=0;shadow=0;html=0;" parent="MnHgNe1KUJ_qipHJh511-77" vertex="1">
          <mxGeometry y="294" width="190" height="26" as="geometry" />
        </mxCell>
        <mxCell id="MnHgNe1KUJ_qipHJh511-96" value="InterfacesLoader" style="swimlane;fontStyle=0;align=center;verticalAlign=top;childLayout=stackLayout;horizontal=1;startSize=26;horizontalStack=0;resizeParent=1;resizeLast=0;collapsible=1;marginBottom=0;rounded=0;shadow=0;strokeWidth=1;" parent="WIyWlLk6GJQsqaUBKTNV-1" vertex="1">
          <mxGeometry x="1440" y="150" width="190" height="122" as="geometry">
            <mxRectangle x="550" y="140" width="160" height="26" as="alternateBounds" />
          </mxGeometry>
        </mxCell>
        <mxCell id="MnHgNe1KUJ_qipHJh511-98" value="- interfaces: list[Interface]" style="text;align=left;verticalAlign=top;spacingLeft=4;spacingRight=4;overflow=hidden;rotatable=0;points=[[0,0.5],[1,0.5]];portConstraint=eastwest;" parent="MnHgNe1KUJ_qipHJh511-96" vertex="1">
          <mxGeometry y="26" width="190" height="26" as="geometry" />
        </mxCell>
        <mxCell id="MnHgNe1KUJ_qipHJh511-99" value="" style="line;html=1;strokeWidth=1;align=left;verticalAlign=middle;spacingTop=-1;spacingLeft=3;spacingRight=3;rotatable=0;labelPosition=right;points=[];portConstraint=eastwest;" parent="MnHgNe1KUJ_qipHJh511-96" vertex="1">
          <mxGeometry y="52" width="190" height="8" as="geometry" />
        </mxCell>
        <mxCell id="MnHgNe1KUJ_qipHJh511-100" value="register_interface()" style="text;align=left;verticalAlign=top;spacingLeft=4;spacingRight=4;overflow=hidden;rotatable=0;points=[[0,0.5],[1,0.5]];portConstraint=eastwest;rounded=0;shadow=0;html=0;" parent="MnHgNe1KUJ_qipHJh511-96" vertex="1">
          <mxGeometry y="60" width="190" height="26" as="geometry" />
        </mxCell>
        <mxCell id="MnHgNe1KUJ_qipHJh511-133" value="remove_interface()" style="text;align=left;verticalAlign=top;spacingLeft=4;spacingRight=4;overflow=hidden;rotatable=0;points=[[0,0.5],[1,0.5]];portConstraint=eastwest;rounded=0;shadow=0;html=0;" parent="MnHgNe1KUJ_qipHJh511-96" vertex="1">
          <mxGeometry y="86" width="190" height="26" as="geometry" />
        </mxCell>
        <mxCell id="MnHgNe1KUJ_qipHJh511-106" value="InterfaceRunner" style="swimlane;fontStyle=0;align=center;verticalAlign=top;childLayout=stackLayout;horizontal=1;startSize=26;horizontalStack=0;resizeParent=1;resizeLast=0;collapsible=1;marginBottom=0;rounded=0;shadow=0;strokeWidth=1;" parent="WIyWlLk6GJQsqaUBKTNV-1" vertex="1">
          <mxGeometry x="1020" y="1360" width="200" height="325" as="geometry">
            <mxRectangle x="550" y="140" width="160" height="26" as="alternateBounds" />
          </mxGeometry>
        </mxCell>
        <mxCell id="MnHgNe1KUJ_qipHJh511-191" value="- frame_loader: FrameLoader" style="text;align=left;verticalAlign=top;spacingLeft=4;spacingRight=4;overflow=hidden;rotatable=0;points=[[0,0.5],[1,0.5]];portConstraint=eastwest;" parent="MnHgNe1KUJ_qipHJh511-106" vertex="1">
          <mxGeometry y="26" width="200" height="26" as="geometry" />
        </mxCell>
        <mxCell id="MnHgNe1KUJ_qipHJh511-194" value="- events_loader: EventsLoader" style="text;align=left;verticalAlign=top;spacingLeft=4;spacingRight=4;overflow=hidden;rotatable=0;points=[[0,0.5],[1,0.5]];portConstraint=eastwest;" parent="MnHgNe1KUJ_qipHJh511-106" vertex="1">
          <mxGeometry y="52" width="200" height="26" as="geometry" />
        </mxCell>
        <mxCell id="MnHgNe1KUJ_qipHJh511-108" value="" style="line;html=1;strokeWidth=1;align=left;verticalAlign=middle;spacingTop=-1;spacingLeft=3;spacingRight=3;rotatable=0;labelPosition=right;points=[];portConstraint=eastwest;" parent="MnHgNe1KUJ_qipHJh511-106" vertex="1">
          <mxGeometry y="78" width="200" height="9" as="geometry" />
        </mxCell>
        <mxCell id="MnHgNe1KUJ_qipHJh511-156" value="init()" style="text;align=left;verticalAlign=top;spacingLeft=4;spacingRight=4;overflow=hidden;rotatable=0;points=[[0,0.5],[1,0.5]];portConstraint=eastwest;rounded=0;shadow=0;html=0;" parent="MnHgNe1KUJ_qipHJh511-106" vertex="1">
          <mxGeometry y="87" width="200" height="27" as="geometry" />
        </mxCell>
        <mxCell id="MnHgNe1KUJ_qipHJh511-113" value="run_events()" style="text;align=left;verticalAlign=top;spacingLeft=4;spacingRight=4;overflow=hidden;rotatable=0;points=[[0,0.5],[1,0.5]];portConstraint=eastwest;rounded=0;shadow=0;html=0;" parent="MnHgNe1KUJ_qipHJh511-106" vertex="1">
          <mxGeometry y="114" width="200" height="27" as="geometry" />
        </mxCell>
        <mxCell id="MnHgNe1KUJ_qipHJh511-182" value="run_frame()" style="text;align=left;verticalAlign=top;spacingLeft=4;spacingRight=4;overflow=hidden;rotatable=0;points=[[0,0.5],[1,0.5]];portConstraint=eastwest;" parent="MnHgNe1KUJ_qipHJh511-106" vertex="1">
          <mxGeometry y="141" width="200" height="26" as="geometry" />
        </mxCell>
        <mxCell id="MnHgNe1KUJ_qipHJh511-159" value="event()" style="text;align=left;verticalAlign=top;spacingLeft=4;spacingRight=4;overflow=hidden;rotatable=0;points=[[0,0.5],[1,0.5]];portConstraint=eastwest;rounded=0;shadow=0;html=0;" parent="MnHgNe1KUJ_qipHJh511-106" vertex="1">
          <mxGeometry y="167" width="200" height="26" as="geometry" />
        </mxCell>
        <mxCell id="MnHgNe1KUJ_qipHJh511-160" value="register_cls()&#xa;" style="text;align=left;verticalAlign=top;spacingLeft=4;spacingRight=4;overflow=hidden;rotatable=0;points=[[0,0.5],[1,0.5]];portConstraint=eastwest;" parent="MnHgNe1KUJ_qipHJh511-106" vertex="1">
          <mxGeometry y="193" width="200" height="26" as="geometry" />
        </mxCell>
        <mxCell id="MnHgNe1KUJ_qipHJh511-163" value="set_cls()&#xa;" style="text;align=left;verticalAlign=top;spacingLeft=4;spacingRight=4;overflow=hidden;rotatable=0;points=[[0,0.5],[1,0.5]];portConstraint=eastwest;" parent="MnHgNe1KUJ_qipHJh511-106" vertex="1">
          <mxGeometry y="219" width="200" height="28" as="geometry" />
        </mxCell>
        <mxCell id="MnHgNe1KUJ_qipHJh511-162" value="add_event()" style="text;align=left;verticalAlign=top;spacingLeft=4;spacingRight=4;overflow=hidden;rotatable=0;points=[[0,0.5],[1,0.5]];portConstraint=eastwest;rounded=0;shadow=0;html=0;" parent="MnHgNe1KUJ_qipHJh511-106" vertex="1">
          <mxGeometry y="247" width="200" height="26" as="geometry" />
        </mxCell>
        <mxCell id="MnHgNe1KUJ_qipHJh511-161" value="register_object()" style="text;align=left;verticalAlign=top;spacingLeft=4;spacingRight=4;overflow=hidden;rotatable=0;points=[[0,0.5],[1,0.5]];portConstraint=eastwest;" parent="MnHgNe1KUJ_qipHJh511-106" vertex="1">
          <mxGeometry y="273" width="200" height="26" as="geometry" />
        </mxCell>
        <mxCell id="MnHgNe1KUJ_qipHJh511-122" value="" style="endArrow=classic;html=1;rounded=0;exitX=0.5;exitY=0;exitDx=0;exitDy=0;entryX=0.5;entryY=1;entryDx=0;entryDy=0;" parent="WIyWlLk6GJQsqaUBKTNV-1" source="MnHgNe1KUJ_qipHJh511-44" target="MnHgNe1KUJ_qipHJh511-106" edge="1">
          <mxGeometry width="50" height="50" relative="1" as="geometry">
            <mxPoint x="1260" y="1825" as="sourcePoint" />
            <mxPoint x="1102" y="1680" as="targetPoint" />
            <Array as="points">
              <mxPoint x="1100" y="1793" />
            </Array>
          </mxGeometry>
        </mxCell>
        <mxCell id="MnHgNe1KUJ_qipHJh511-142" value="FrameLoader" style="swimlane;fontStyle=0;align=center;verticalAlign=top;childLayout=stackLayout;horizontal=1;startSize=26;horizontalStack=0;resizeParent=1;resizeLast=0;collapsible=1;marginBottom=0;rounded=0;shadow=0;strokeWidth=1;" parent="WIyWlLk6GJQsqaUBKTNV-1" vertex="1">
          <mxGeometry x="764" y="213.5" width="160" height="162" as="geometry">
            <mxRectangle x="550" y="140" width="160" height="26" as="alternateBounds" />
          </mxGeometry>
        </mxCell>
        <mxCell id="MnHgNe1KUJ_qipHJh511-153" value="- func: Callable" style="text;align=left;verticalAlign=top;spacingLeft=4;spacingRight=4;overflow=hidden;rotatable=0;points=[[0,0.5],[1,0.5]];portConstraint=eastwest;" parent="MnHgNe1KUJ_qipHJh511-142" vertex="1">
          <mxGeometry y="26" width="160" height="26" as="geometry" />
        </mxCell>
        <mxCell id="MnHgNe1KUJ_qipHJh511-143" value="" style="line;html=1;strokeWidth=1;align=left;verticalAlign=middle;spacingTop=-1;spacingLeft=3;spacingRight=3;rotatable=0;labelPosition=right;points=[];portConstraint=eastwest;" parent="MnHgNe1KUJ_qipHJh511-142" vertex="1">
          <mxGeometry y="52" width="160" height="8" as="geometry" />
        </mxCell>
        <mxCell id="MnHgNe1KUJ_qipHJh511-154" value="load()" style="text;align=left;verticalAlign=top;spacingLeft=4;spacingRight=4;overflow=hidden;rotatable=0;points=[[0,0.5],[1,0.5]];portConstraint=eastwest;" parent="MnHgNe1KUJ_qipHJh511-142" vertex="1">
          <mxGeometry y="60" width="160" height="26" as="geometry" />
        </mxCell>
        <mxCell id="MnHgNe1KUJ_qipHJh511-183" value="setup()" style="text;align=left;verticalAlign=top;spacingLeft=4;spacingRight=4;overflow=hidden;rotatable=0;points=[[0,0.5],[1,0.5]];portConstraint=eastwest;" parent="MnHgNe1KUJ_qipHJh511-142" vertex="1">
          <mxGeometry y="86" width="160" height="26" as="geometry" />
        </mxCell>
        <mxCell id="MnHgNe1KUJ_qipHJh511-180" value="run()" style="text;align=left;verticalAlign=top;spacingLeft=4;spacingRight=4;overflow=hidden;rotatable=0;points=[[0,0.5],[1,0.5]];portConstraint=eastwest;" parent="MnHgNe1KUJ_qipHJh511-142" vertex="1">
          <mxGeometry y="112" width="160" height="24" as="geometry" />
        </mxCell>
        <mxCell id="MnHgNe1KUJ_qipHJh511-169" value="NamedInterface" style="swimlane;fontStyle=0;align=center;verticalAlign=top;childLayout=stackLayout;horizontal=1;startSize=26;horizontalStack=0;resizeParent=1;resizeLast=0;collapsible=1;marginBottom=0;rounded=0;shadow=0;strokeWidth=1;" parent="WIyWlLk6GJQsqaUBKTNV-1" vertex="1">
          <mxGeometry x="2000" y="1304" width="160" height="180" as="geometry">
            <mxRectangle x="550" y="140" width="160" height="26" as="alternateBounds" />
          </mxGeometry>
        </mxCell>
        <mxCell id="MnHgNe1KUJ_qipHJh511-170" value="- name: str" style="text;align=left;verticalAlign=top;spacingLeft=4;spacingRight=4;overflow=hidden;rotatable=0;points=[[0,0.5],[1,0.5]];portConstraint=eastwest;rounded=0;shadow=0;html=0;" parent="MnHgNe1KUJ_qipHJh511-169" vertex="1">
          <mxGeometry y="26" width="160" height="27" as="geometry" />
        </mxCell>
        <mxCell id="MnHgNe1KUJ_qipHJh511-171" value="- is_active: bool" style="text;align=left;verticalAlign=top;spacingLeft=4;spacingRight=4;overflow=hidden;rotatable=0;points=[[0,0.5],[1,0.5]];portConstraint=eastwest;rounded=0;shadow=0;html=0;" parent="MnHgNe1KUJ_qipHJh511-169" vertex="1">
          <mxGeometry y="53" width="160" height="27" as="geometry" />
        </mxCell>
        <mxCell id="MnHgNe1KUJ_qipHJh511-172" value="" style="line;html=1;strokeWidth=1;align=left;verticalAlign=middle;spacingTop=-1;spacingLeft=3;spacingRight=3;rotatable=0;labelPosition=right;points=[];portConstraint=eastwest;" parent="MnHgNe1KUJ_qipHJh511-169" vertex="1">
          <mxGeometry y="80" width="160" height="9" as="geometry" />
        </mxCell>
        <mxCell id="MnHgNe1KUJ_qipHJh511-173" value="is_active()" style="text;align=left;verticalAlign=top;spacingLeft=4;spacingRight=4;overflow=hidden;rotatable=0;points=[[0,0.5],[1,0.5]];portConstraint=eastwest;rounded=0;shadow=0;html=0;" parent="MnHgNe1KUJ_qipHJh511-169" vertex="1">
          <mxGeometry y="89" width="160" height="27" as="geometry" />
        </mxCell>
        <mxCell id="MnHgNe1KUJ_qipHJh511-174" value="activate()" style="text;align=left;verticalAlign=top;spacingLeft=4;spacingRight=4;overflow=hidden;rotatable=0;points=[[0,0.5],[1,0.5]];portConstraint=eastwest;rounded=0;shadow=0;html=0;" parent="MnHgNe1KUJ_qipHJh511-169" vertex="1">
          <mxGeometry y="116" width="160" height="27" as="geometry" />
        </mxCell>
        <mxCell id="MnHgNe1KUJ_qipHJh511-175" value="deactivate()" style="text;align=left;verticalAlign=top;spacingLeft=4;spacingRight=4;overflow=hidden;rotatable=0;points=[[0,0.5],[1,0.5]];portConstraint=eastwest;rounded=0;shadow=0;html=0;" parent="MnHgNe1KUJ_qipHJh511-169" vertex="1">
          <mxGeometry y="143" width="160" height="27" as="geometry" />
        </mxCell>
        <mxCell id="MnHgNe1KUJ_qipHJh511-178" style="edgeStyle=orthogonalEdgeStyle;rounded=0;orthogonalLoop=1;jettySize=auto;html=1;exitX=1;exitY=0.5;exitDx=0;exitDy=0;entryX=0.5;entryY=1;entryDx=0;entryDy=0;" parent="WIyWlLk6GJQsqaUBKTNV-1" target="MnHgNe1KUJ_qipHJh511-169" edge="1">
          <mxGeometry relative="1" as="geometry">
            <mxPoint x="2080" y="1512.9473684210525" as="targetPoint" />
            <mxPoint x="1630" y="1991.5" as="sourcePoint" />
          </mxGeometry>
        </mxCell>
        <mxCell id="MnHgNe1KUJ_qipHJh511-186" value="&lt;div&gt;pygame_manager/&lt;/div&gt;&lt;div&gt;├── loaders/&lt;/div&gt;&lt;div&gt;│&amp;nbsp; &amp;nbsp;├── __init__.py&lt;/div&gt;&lt;div&gt;│&amp;nbsp; &amp;nbsp;├── events.py&lt;/div&gt;&lt;div&gt;│&amp;nbsp; &amp;nbsp;&lt;span style=&quot;background-color: initial;&quot;&gt;├&lt;/span&gt;&lt;span style=&quot;background-color: initial;&quot;&gt;── frame.py&lt;/span&gt;&lt;/div&gt;&lt;div&gt;│&amp;nbsp; &amp;nbsp;└── interfaces.py&lt;/div&gt;&lt;div&gt;├── core/&lt;/div&gt;&lt;div&gt;│&amp;nbsp; &amp;nbsp;&lt;span style=&quot;background-color: initial;&quot;&gt;├&lt;/span&gt;&lt;span style=&quot;background-color: initial;&quot;&gt;── __init__.py&lt;/span&gt;&lt;/div&gt;&lt;div&gt;│&amp;nbsp; &amp;nbsp;├── event.py&lt;/div&gt;&lt;div&gt;│&amp;nbsp; &amp;nbsp;├── frame.py&lt;/div&gt;&lt;div&gt;│&amp;nbsp; &amp;nbsp;&lt;span style=&quot;background-color: initial;&quot;&gt;├&lt;/span&gt;&lt;span style=&quot;background-color: initial;&quot;&gt;── interface.py&lt;/span&gt;&lt;/div&gt;&lt;div&gt;│&amp;nbsp; &amp;nbsp;&lt;span style=&quot;background-color: initial;&quot;&gt;├&lt;/span&gt;&lt;span style=&quot;background-color: initial;&quot;&gt;──&amp;nbsp;group.py&lt;/span&gt;&lt;/div&gt;&lt;div&gt;│&amp;nbsp; &amp;nbsp;&lt;span style=&quot;background-color: initial;&quot;&gt;├&lt;/span&gt;&lt;span style=&quot;background-color: initial;&quot;&gt;── named_interface.py&lt;/span&gt;&lt;span style=&quot;background-color: initial;&quot;&gt;&lt;/span&gt;&lt;/div&gt;&lt;div&gt;│&amp;nbsp; &amp;nbsp;└──&amp;nbsp;&lt;span style=&quot;background-color: initial;&quot;&gt;game.py&lt;/span&gt;&lt;/div&gt;&lt;div&gt;└── README.md&lt;/div&gt;" style="whiteSpace=wrap;html=1;align=left;" parent="WIyWlLk6GJQsqaUBKTNV-1" vertex="1">
          <mxGeometry x="2370" y="510" width="380" height="230" as="geometry" />
        </mxCell>
        <mxCell id="cccrhHWZmDAbZzbRYxrW-0" value="Interface - abstract" style="swimlane;fontStyle=0;align=center;verticalAlign=top;childLayout=stackLayout;horizontal=1;startSize=26;horizontalStack=0;resizeParent=1;resizeLast=0;collapsible=1;marginBottom=0;rounded=0;shadow=0;strokeWidth=1;" vertex="1" parent="WIyWlLk6GJQsqaUBKTNV-1">
          <mxGeometry x="1455" y="-200" width="160" height="222" as="geometry">
            <mxRectangle x="550" y="140" width="160" height="26" as="alternateBounds" />
          </mxGeometry>
        </mxCell>
        <mxCell id="cccrhHWZmDAbZzbRYxrW-3" value="" style="line;html=1;strokeWidth=1;align=left;verticalAlign=middle;spacingTop=-1;spacingLeft=3;spacingRight=3;rotatable=0;labelPosition=right;points=[];portConstraint=eastwest;" vertex="1" parent="cccrhHWZmDAbZzbRYxrW-0">
          <mxGeometry y="26" width="160" height="8" as="geometry" />
        </mxCell>
        <mxCell id="cccrhHWZmDAbZzbRYxrW-4" value="init()" style="text;align=left;verticalAlign=top;spacingLeft=4;spacingRight=4;overflow=hidden;rotatable=0;points=[[0,0.5],[1,0.5]];portConstraint=eastwest;" vertex="1" parent="cccrhHWZmDAbZzbRYxrW-0">
          <mxGeometry y="34" width="160" height="26" as="geometry" />
        </mxCell>
        <mxCell id="cccrhHWZmDAbZzbRYxrW-5" value="add_event()&#xa;" style="text;align=left;verticalAlign=top;spacingLeft=4;spacingRight=4;overflow=hidden;rotatable=0;points=[[0,0.5],[1,0.5]];portConstraint=eastwest;" vertex="1" parent="cccrhHWZmDAbZzbRYxrW-0">
          <mxGeometry y="60" width="160" height="26" as="geometry" />
        </mxCell>
        <mxCell id="cccrhHWZmDAbZzbRYxrW-6" value="event()&#xa;" style="text;align=left;verticalAlign=top;spacingLeft=4;spacingRight=4;overflow=hidden;rotatable=0;points=[[0,0.5],[1,0.5]];portConstraint=eastwest;" vertex="1" parent="cccrhHWZmDAbZzbRYxrW-0">
          <mxGeometry y="86" width="160" height="30" as="geometry" />
        </mxCell>
        <mxCell id="cccrhHWZmDAbZzbRYxrW-40" value="frame()&#xa;" style="text;align=left;verticalAlign=top;spacingLeft=4;spacingRight=4;overflow=hidden;rotatable=0;points=[[0,0.5],[1,0.5]];portConstraint=eastwest;" vertex="1" parent="cccrhHWZmDAbZzbRYxrW-0">
          <mxGeometry y="116" width="160" height="27" as="geometry" />
        </mxCell>
        <mxCell id="cccrhHWZmDAbZzbRYxrW-7" value="register_cls()&#xa;" style="text;align=left;verticalAlign=top;spacingLeft=4;spacingRight=4;overflow=hidden;rotatable=0;points=[[0,0.5],[1,0.5]];portConstraint=eastwest;" vertex="1" parent="cccrhHWZmDAbZzbRYxrW-0">
          <mxGeometry y="143" width="160" height="26" as="geometry" />
        </mxCell>
        <mxCell id="cccrhHWZmDAbZzbRYxrW-8" value="register_object()" style="text;align=left;verticalAlign=top;spacingLeft=4;spacingRight=4;overflow=hidden;rotatable=0;points=[[0,0.5],[1,0.5]];portConstraint=eastwest;" vertex="1" parent="cccrhHWZmDAbZzbRYxrW-0">
          <mxGeometry y="169" width="160" height="26" as="geometry" />
        </mxCell>
        <mxCell id="cccrhHWZmDAbZzbRYxrW-9" value="set_cls()&#xa;" style="text;align=left;verticalAlign=top;spacingLeft=4;spacingRight=4;overflow=hidden;rotatable=0;points=[[0,0.5],[1,0.5]];portConstraint=eastwest;" vertex="1" parent="cccrhHWZmDAbZzbRYxrW-0">
          <mxGeometry y="195" width="160" height="27" as="geometry" />
        </mxCell>
        <mxCell id="cccrhHWZmDAbZzbRYxrW-11" value="" style="endArrow=diamondThin;endFill=1;endSize=24;html=1;rounded=0;exitX=0.5;exitY=1;exitDx=0;exitDy=0;entryX=0.5;entryY=0;entryDx=0;entryDy=0;" edge="1" parent="WIyWlLk6GJQsqaUBKTNV-1" source="MnHgNe1KUJ_qipHJh511-77" target="MnHgNe1KUJ_qipHJh511-0">
          <mxGeometry width="160" relative="1" as="geometry">
            <mxPoint x="1170" y="40" as="sourcePoint" />
            <mxPoint x="1330" y="40" as="targetPoint" />
          </mxGeometry>
        </mxCell>
        <mxCell id="cccrhHWZmDAbZzbRYxrW-19" value="NamedInterface" style="swimlane;fontStyle=0;align=center;verticalAlign=top;childLayout=stackLayout;horizontal=1;startSize=26;horizontalStack=0;resizeParent=1;resizeLast=0;collapsible=1;marginBottom=0;rounded=0;shadow=0;strokeWidth=1;" vertex="1" parent="WIyWlLk6GJQsqaUBKTNV-1">
          <mxGeometry x="2080" y="610" width="160" height="180" as="geometry">
            <mxRectangle x="550" y="140" width="160" height="26" as="alternateBounds" />
          </mxGeometry>
        </mxCell>
        <mxCell id="cccrhHWZmDAbZzbRYxrW-20" value="- name: str" style="text;align=left;verticalAlign=top;spacingLeft=4;spacingRight=4;overflow=hidden;rotatable=0;points=[[0,0.5],[1,0.5]];portConstraint=eastwest;rounded=0;shadow=0;html=0;" vertex="1" parent="cccrhHWZmDAbZzbRYxrW-19">
          <mxGeometry y="26" width="160" height="27" as="geometry" />
        </mxCell>
        <mxCell id="cccrhHWZmDAbZzbRYxrW-21" value="- is_active: bool" style="text;align=left;verticalAlign=top;spacingLeft=4;spacingRight=4;overflow=hidden;rotatable=0;points=[[0,0.5],[1,0.5]];portConstraint=eastwest;rounded=0;shadow=0;html=0;" vertex="1" parent="cccrhHWZmDAbZzbRYxrW-19">
          <mxGeometry y="53" width="160" height="27" as="geometry" />
        </mxCell>
        <mxCell id="cccrhHWZmDAbZzbRYxrW-22" value="" style="line;html=1;strokeWidth=1;align=left;verticalAlign=middle;spacingTop=-1;spacingLeft=3;spacingRight=3;rotatable=0;labelPosition=right;points=[];portConstraint=eastwest;" vertex="1" parent="cccrhHWZmDAbZzbRYxrW-19">
          <mxGeometry y="80" width="160" height="9" as="geometry" />
        </mxCell>
        <mxCell id="cccrhHWZmDAbZzbRYxrW-23" value="is_active()" style="text;align=left;verticalAlign=top;spacingLeft=4;spacingRight=4;overflow=hidden;rotatable=0;points=[[0,0.5],[1,0.5]];portConstraint=eastwest;rounded=0;shadow=0;html=0;" vertex="1" parent="cccrhHWZmDAbZzbRYxrW-19">
          <mxGeometry y="89" width="160" height="27" as="geometry" />
        </mxCell>
        <mxCell id="cccrhHWZmDAbZzbRYxrW-24" value="activate()" style="text;align=left;verticalAlign=top;spacingLeft=4;spacingRight=4;overflow=hidden;rotatable=0;points=[[0,0.5],[1,0.5]];portConstraint=eastwest;rounded=0;shadow=0;html=0;" vertex="1" parent="cccrhHWZmDAbZzbRYxrW-19">
          <mxGeometry y="116" width="160" height="27" as="geometry" />
        </mxCell>
        <mxCell id="cccrhHWZmDAbZzbRYxrW-25" value="deactivate()" style="text;align=left;verticalAlign=top;spacingLeft=4;spacingRight=4;overflow=hidden;rotatable=0;points=[[0,0.5],[1,0.5]];portConstraint=eastwest;rounded=0;shadow=0;html=0;" vertex="1" parent="cccrhHWZmDAbZzbRYxrW-19">
          <mxGeometry y="143" width="160" height="27" as="geometry" />
        </mxCell>
        <mxCell id="cccrhHWZmDAbZzbRYxrW-26" value="NamedInterface" style="swimlane;fontStyle=0;align=center;verticalAlign=top;childLayout=stackLayout;horizontal=1;startSize=26;horizontalStack=0;resizeParent=1;resizeLast=0;collapsible=1;marginBottom=0;rounded=0;shadow=0;strokeWidth=1;" vertex="1" parent="WIyWlLk6GJQsqaUBKTNV-1">
          <mxGeometry x="1455" y="451" width="160" height="339" as="geometry">
            <mxRectangle x="550" y="140" width="160" height="26" as="alternateBounds" />
          </mxGeometry>
        </mxCell>
        <mxCell id="cccrhHWZmDAbZzbRYxrW-27" value="- name: str" style="text;align=left;verticalAlign=top;spacingLeft=4;spacingRight=4;overflow=hidden;rotatable=0;points=[[0,0.5],[1,0.5]];portConstraint=eastwest;rounded=0;shadow=0;html=0;" vertex="1" parent="cccrhHWZmDAbZzbRYxrW-26">
          <mxGeometry y="26" width="160" height="27" as="geometry" />
        </mxCell>
        <mxCell id="cccrhHWZmDAbZzbRYxrW-28" value="- is_active: bool" style="text;align=left;verticalAlign=top;spacingLeft=4;spacingRight=4;overflow=hidden;rotatable=0;points=[[0,0.5],[1,0.5]];portConstraint=eastwest;rounded=0;shadow=0;html=0;" vertex="1" parent="cccrhHWZmDAbZzbRYxrW-26">
          <mxGeometry y="53" width="160" height="27" as="geometry" />
        </mxCell>
        <mxCell id="cccrhHWZmDAbZzbRYxrW-29" value="" style="line;html=1;strokeWidth=1;align=left;verticalAlign=middle;spacingTop=-1;spacingLeft=3;spacingRight=3;rotatable=0;labelPosition=right;points=[];portConstraint=eastwest;" vertex="1" parent="cccrhHWZmDAbZzbRYxrW-26">
          <mxGeometry y="80" width="160" height="8" as="geometry" />
        </mxCell>
        <mxCell id="cccrhHWZmDAbZzbRYxrW-30" value="is_active()" style="text;align=left;verticalAlign=top;spacingLeft=4;spacingRight=4;overflow=hidden;rotatable=0;points=[[0,0.5],[1,0.5]];portConstraint=eastwest;rounded=0;shadow=0;html=0;" vertex="1" parent="cccrhHWZmDAbZzbRYxrW-26">
          <mxGeometry y="88" width="160" height="27" as="geometry" />
        </mxCell>
        <mxCell id="cccrhHWZmDAbZzbRYxrW-31" value="activate()" style="text;align=left;verticalAlign=top;spacingLeft=4;spacingRight=4;overflow=hidden;rotatable=0;points=[[0,0.5],[1,0.5]];portConstraint=eastwest;rounded=0;shadow=0;html=0;" vertex="1" parent="cccrhHWZmDAbZzbRYxrW-26">
          <mxGeometry y="115" width="160" height="27" as="geometry" />
        </mxCell>
        <mxCell id="cccrhHWZmDAbZzbRYxrW-32" value="deactivate()" style="text;align=left;verticalAlign=top;spacingLeft=4;spacingRight=4;overflow=hidden;rotatable=0;points=[[0,0.5],[1,0.5]];portConstraint=eastwest;rounded=0;shadow=0;html=0;" vertex="1" parent="cccrhHWZmDAbZzbRYxrW-26">
          <mxGeometry y="142" width="160" height="27" as="geometry" />
        </mxCell>
        <mxCell id="cccrhHWZmDAbZzbRYxrW-33" value="init()" style="text;align=left;verticalAlign=top;spacingLeft=4;spacingRight=4;overflow=hidden;rotatable=0;points=[[0,0.5],[1,0.5]];portConstraint=eastwest;" vertex="1" parent="cccrhHWZmDAbZzbRYxrW-26">
          <mxGeometry y="169" width="160" height="26" as="geometry" />
        </mxCell>
        <mxCell id="cccrhHWZmDAbZzbRYxrW-34" value="add_event()&#xa;" style="text;align=left;verticalAlign=top;spacingLeft=4;spacingRight=4;overflow=hidden;rotatable=0;points=[[0,0.5],[1,0.5]];portConstraint=eastwest;" vertex="1" parent="cccrhHWZmDAbZzbRYxrW-26">
          <mxGeometry y="195" width="160" height="26" as="geometry" />
        </mxCell>
        <mxCell id="cccrhHWZmDAbZzbRYxrW-35" value="event()&#xa;" style="text;align=left;verticalAlign=top;spacingLeft=4;spacingRight=4;overflow=hidden;rotatable=0;points=[[0,0.5],[1,0.5]];portConstraint=eastwest;" vertex="1" parent="cccrhHWZmDAbZzbRYxrW-26">
          <mxGeometry y="221" width="160" height="30" as="geometry" />
        </mxCell>
        <mxCell id="cccrhHWZmDAbZzbRYxrW-36" value="register_cls()&#xa;" style="text;align=left;verticalAlign=top;spacingLeft=4;spacingRight=4;overflow=hidden;rotatable=0;points=[[0,0.5],[1,0.5]];portConstraint=eastwest;" vertex="1" parent="cccrhHWZmDAbZzbRYxrW-26">
          <mxGeometry y="251" width="160" height="26" as="geometry" />
        </mxCell>
        <mxCell id="cccrhHWZmDAbZzbRYxrW-37" value="register_object()" style="text;align=left;verticalAlign=top;spacingLeft=4;spacingRight=4;overflow=hidden;rotatable=0;points=[[0,0.5],[1,0.5]];portConstraint=eastwest;" vertex="1" parent="cccrhHWZmDAbZzbRYxrW-26">
          <mxGeometry y="277" width="160" height="26" as="geometry" />
        </mxCell>
        <mxCell id="cccrhHWZmDAbZzbRYxrW-38" value="set_cls()&#xa;" style="text;align=left;verticalAlign=top;spacingLeft=4;spacingRight=4;overflow=hidden;rotatable=0;points=[[0,0.5],[1,0.5]];portConstraint=eastwest;" vertex="1" parent="cccrhHWZmDAbZzbRYxrW-26">
          <mxGeometry y="303" width="160" height="27" as="geometry" />
        </mxCell>
        <mxCell id="cccrhHWZmDAbZzbRYxrW-39" value="" style="endArrow=block;endSize=16;endFill=0;html=1;rounded=0;entryX=0.5;entryY=1;entryDx=0;entryDy=0;exitX=0.5;exitY=0;exitDx=0;exitDy=0;" edge="1" parent="WIyWlLk6GJQsqaUBKTNV-1" source="MnHgNe1KUJ_qipHJh511-96" target="cccrhHWZmDAbZzbRYxrW-0">
          <mxGeometry width="160" relative="1" as="geometry">
            <mxPoint x="1545" y="-190" as="sourcePoint" />
            <mxPoint x="1702" y="-310" as="targetPoint" />
          </mxGeometry>
        </mxCell>
        <mxCell id="cccrhHWZmDAbZzbRYxrW-41" value="" style="endArrow=block;endSize=16;endFill=0;html=1;rounded=0;entryX=0.5;entryY=1;entryDx=0;entryDy=0;exitX=0.5;exitY=0;exitDx=0;exitDy=0;" edge="1" parent="WIyWlLk6GJQsqaUBKTNV-1" source="cccrhHWZmDAbZzbRYxrW-26" target="MnHgNe1KUJ_qipHJh511-96">
          <mxGeometry width="160" relative="1" as="geometry">
            <mxPoint x="1545" y="160" as="sourcePoint" />
            <mxPoint x="1545" y="32" as="targetPoint" />
          </mxGeometry>
        </mxCell>
        <mxCell id="cccrhHWZmDAbZzbRYxrW-42" value="InterfaceRunner" style="swimlane;fontStyle=0;align=center;verticalAlign=top;childLayout=stackLayout;horizontal=1;startSize=26;horizontalStack=0;resizeParent=1;resizeLast=0;collapsible=1;marginBottom=0;rounded=0;shadow=0;strokeWidth=1;" vertex="1" parent="WIyWlLk6GJQsqaUBKTNV-1">
          <mxGeometry x="1770" y="320" width="200" height="325" as="geometry">
            <mxRectangle x="550" y="140" width="160" height="26" as="alternateBounds" />
          </mxGeometry>
        </mxCell>
        <mxCell id="cccrhHWZmDAbZzbRYxrW-43" value="- frame_loader: FrameLoader" style="text;align=left;verticalAlign=top;spacingLeft=4;spacingRight=4;overflow=hidden;rotatable=0;points=[[0,0.5],[1,0.5]];portConstraint=eastwest;" vertex="1" parent="cccrhHWZmDAbZzbRYxrW-42">
          <mxGeometry y="26" width="200" height="26" as="geometry" />
        </mxCell>
        <mxCell id="cccrhHWZmDAbZzbRYxrW-44" value="- events_loader: EventsLoader" style="text;align=left;verticalAlign=top;spacingLeft=4;spacingRight=4;overflow=hidden;rotatable=0;points=[[0,0.5],[1,0.5]];portConstraint=eastwest;" vertex="1" parent="cccrhHWZmDAbZzbRYxrW-42">
          <mxGeometry y="52" width="200" height="26" as="geometry" />
        </mxCell>
        <mxCell id="cccrhHWZmDAbZzbRYxrW-45" value="" style="line;html=1;strokeWidth=1;align=left;verticalAlign=middle;spacingTop=-1;spacingLeft=3;spacingRight=3;rotatable=0;labelPosition=right;points=[];portConstraint=eastwest;" vertex="1" parent="cccrhHWZmDAbZzbRYxrW-42">
          <mxGeometry y="78" width="200" height="9" as="geometry" />
        </mxCell>
        <mxCell id="cccrhHWZmDAbZzbRYxrW-46" value="init()" style="text;align=left;verticalAlign=top;spacingLeft=4;spacingRight=4;overflow=hidden;rotatable=0;points=[[0,0.5],[1,0.5]];portConstraint=eastwest;rounded=0;shadow=0;html=0;" vertex="1" parent="cccrhHWZmDAbZzbRYxrW-42">
          <mxGeometry y="87" width="200" height="27" as="geometry" />
        </mxCell>
        <mxCell id="cccrhHWZmDAbZzbRYxrW-47" value="run_events()" style="text;align=left;verticalAlign=top;spacingLeft=4;spacingRight=4;overflow=hidden;rotatable=0;points=[[0,0.5],[1,0.5]];portConstraint=eastwest;rounded=0;shadow=0;html=0;" vertex="1" parent="cccrhHWZmDAbZzbRYxrW-42">
          <mxGeometry y="114" width="200" height="27" as="geometry" />
        </mxCell>
        <mxCell id="cccrhHWZmDAbZzbRYxrW-48" value="run_frame()" style="text;align=left;verticalAlign=top;spacingLeft=4;spacingRight=4;overflow=hidden;rotatable=0;points=[[0,0.5],[1,0.5]];portConstraint=eastwest;" vertex="1" parent="cccrhHWZmDAbZzbRYxrW-42">
          <mxGeometry y="141" width="200" height="26" as="geometry" />
        </mxCell>
        <mxCell id="cccrhHWZmDAbZzbRYxrW-49" value="event()" style="text;align=left;verticalAlign=top;spacingLeft=4;spacingRight=4;overflow=hidden;rotatable=0;points=[[0,0.5],[1,0.5]];portConstraint=eastwest;rounded=0;shadow=0;html=0;" vertex="1" parent="cccrhHWZmDAbZzbRYxrW-42">
          <mxGeometry y="167" width="200" height="26" as="geometry" />
        </mxCell>
        <mxCell id="cccrhHWZmDAbZzbRYxrW-52" value="register_event()" style="text;align=left;verticalAlign=top;spacingLeft=4;spacingRight=4;overflow=hidden;rotatable=0;points=[[0,0.5],[1,0.5]];portConstraint=eastwest;rounded=0;shadow=0;html=0;" vertex="1" parent="cccrhHWZmDAbZzbRYxrW-42">
          <mxGeometry y="193" width="200" height="26" as="geometry" />
        </mxCell>
        <mxCell id="cccrhHWZmDAbZzbRYxrW-50" value="register_cls()&#xa;" style="text;align=left;verticalAlign=top;spacingLeft=4;spacingRight=4;overflow=hidden;rotatable=0;points=[[0,0.5],[1,0.5]];portConstraint=eastwest;" vertex="1" parent="cccrhHWZmDAbZzbRYxrW-42">
          <mxGeometry y="219" width="200" height="26" as="geometry" />
        </mxCell>
        <mxCell id="cccrhHWZmDAbZzbRYxrW-53" value="register_object()" style="text;align=left;verticalAlign=top;spacingLeft=4;spacingRight=4;overflow=hidden;rotatable=0;points=[[0,0.5],[1,0.5]];portConstraint=eastwest;" vertex="1" parent="cccrhHWZmDAbZzbRYxrW-42">
          <mxGeometry y="245" width="200" height="26" as="geometry" />
        </mxCell>
        <mxCell id="cccrhHWZmDAbZzbRYxrW-51" value="set_cls()&#xa;" style="text;align=left;verticalAlign=top;spacingLeft=4;spacingRight=4;overflow=hidden;rotatable=0;points=[[0,0.5],[1,0.5]];portConstraint=eastwest;" vertex="1" parent="cccrhHWZmDAbZzbRYxrW-42">
          <mxGeometry y="271" width="200" height="28" as="geometry" />
        </mxCell>
        <mxCell id="cccrhHWZmDAbZzbRYxrW-54" value="" style="endArrow=block;endSize=16;endFill=0;html=1;rounded=0;entryX=1;entryY=0.5;entryDx=0;entryDy=0;exitX=0.5;exitY=0;exitDx=0;exitDy=0;" edge="1" parent="WIyWlLk6GJQsqaUBKTNV-1" source="cccrhHWZmDAbZzbRYxrW-42" target="MnHgNe1KUJ_qipHJh511-100">
          <mxGeometry width="160" relative="1" as="geometry">
            <mxPoint x="1545" y="461" as="sourcePoint" />
            <mxPoint x="1545" y="282" as="targetPoint" />
          </mxGeometry>
        </mxCell>
      </root>
    </mxGraphModel>
  </diagram>
</mxfile>
